<svg width="23" height="11" viewBox="0 0 23 11" fill="none" xmlns="http://www.w3.org/2000/svg">
<path d="M18.2028 11H10.5272C10.2727 11 10.0287 10.9034 9.84872 10.7315C9.66879 10.5596 9.56771 10.3264 9.56771 10.0833C9.56771 9.84014 9.66879 9.60697 9.84872 9.43505C10.0287 9.26313 10.2727 9.16655 10.5272 9.16655H18.2028C18.4572 9.16655 18.7013 9.26313 18.8812 9.43505C19.0611 9.60697 19.1622 9.84014 19.1622 10.0833C19.1622 10.3264 19.0611 10.5596 18.8812 10.7315C18.7013 10.9034 18.4572 11 18.2028 11ZM3.81101 11C3.55643 11 3.31226 10.9035 3.13212 10.7316C2.95199 10.5597 2.85062 10.3265 2.85028 10.0833V3.12839L1.61067 4.32013C1.42755 4.47989 1.18694 4.56591 0.939036 4.56025C0.691136 4.55459 0.455096 4.45769 0.280167 4.28976C0.105238 4.12184 0.00493178 3.89585 0.00017706 3.65897C-0.00457766 3.42208 0.0865864 3.19259 0.254648 3.01838L3.133 0.268205C3.31311 0.0964574 3.55718 0 3.81165 0C4.06611 0 4.31018 0.0964574 4.4903 0.268205L7.36865 3.01838C7.46444 3.1021 7.54151 3.20348 7.5952 3.31641C7.6489 3.42935 7.67812 3.5515 7.6811 3.6755C7.68408 3.79951 7.66076 3.92281 7.61255 4.03798C7.56433 4.15315 7.49222 4.25781 7.40055 4.34564C7.30888 4.43347 7.19955 4.50267 7.07915 4.54907C6.95875 4.59546 6.82977 4.61809 6.69998 4.61559C6.57018 4.61309 6.44226 4.58552 6.32391 4.53453C6.20556 4.48354 6.09924 4.4102 6.01135 4.31891L4.77046 3.12839V10.0857C4.76944 10.3283 4.66795 10.5607 4.48817 10.732C4.30838 10.9033 4.06492 10.9997 3.81101 11ZM18.2028 6.41882H10.5272C10.2727 6.41882 10.0287 6.32224 9.84872 6.15032C9.66879 5.9784 9.56771 5.74522 9.56771 5.50209C9.56771 5.25896 9.66879 5.02579 9.84872 4.85387C10.0287 4.68195 10.2727 4.58537 10.5272 4.58537H18.2028C18.4572 4.58537 18.7013 4.68195 18.8812 4.85387C19.0611 5.02579 19.1622 5.25896 19.1622 5.50209C19.1622 5.74522 19.0611 5.9784 18.8812 6.15032C18.7013 6.32224 18.4572 6.41882 18.2028 6.41882ZM22.0406 1.83642H10.5272C10.2727 1.83642 10.0287 1.73983 9.84872 1.56791C9.66879 1.39599 9.56771 1.16282 9.56771 0.919691C9.56771 0.67656 9.66879 0.443387 9.84872 0.271468C10.0287 0.0995488 10.2727 0.00296549 10.5272 0.00296549H22.0406C22.295 0.00296549 22.5391 0.0995488 22.719 0.271468C22.8989 0.443387 23 0.67656 23 0.919691C23 1.16282 22.8989 1.39599 22.719 1.56791C22.5391 1.73983 22.295 1.83642 22.0406 1.83642Z" fill="#0F4168"/>
</svg>
