<svg width="316" height="216" viewBox="0 0 316 216" fill="none" xmlns="http://www.w3.org/2000/svg">
<path fill-rule="evenodd" clip-rule="evenodd" d="M54.7246 79.4204C84.721 79.4204 109.038 103.737 109.038 133.734C109.038 163.73 84.721 188.047 54.7246 188.047C24.7281 188.047 0.411133 163.73 0.411133 133.734C0.411133 103.737 24.7281 79.4204 54.7246 79.4204ZM54.3811 120.365C61.5749 120.365 67.4067 126.196 67.4067 133.39C67.4067 140.584 61.5749 146.416 54.3811 146.416C47.1872 146.416 41.3555 140.584 41.3555 133.39C41.3555 126.196 47.1872 120.365 54.3811 120.365Z" fill="#0F4168"/>
<path fill-rule="evenodd" clip-rule="evenodd" d="M222.337 215.928C170.868 215.928 129.144 174.204 129.144 122.735C129.144 71.2654 170.868 29.5414 222.337 29.5414C273.806 29.5414 315.53 71.2654 315.53 122.735C315.53 174.204 273.806 215.928 222.337 215.928ZM222.336 143.746C210.731 143.746 201.324 134.339 201.324 122.735C201.324 111.13 210.731 101.723 222.336 101.723C233.94 101.723 243.347 111.13 243.347 122.735C243.347 134.339 233.94 143.746 222.336 143.746Z" fill="#2196F3"/>
<path d="M94.3936 18.821C94.3936 29.1684 102.782 37.5567 113.129 37.5567C123.477 37.5567 131.865 29.1684 131.865 18.821C131.865 8.47355 123.477 0.0852966 113.129 0.0852966C102.782 0.0852966 94.3936 8.47355 94.3936 18.821Z" fill="#2196F3"/>
</svg>
