<svg width="23" height="11" viewBox="0 0 23 11" fill="none" xmlns="http://www.w3.org/2000/svg">
<path d="M3.85207 11C3.72623 11.0004 3.60155 10.977 3.48521 10.931C3.36887 10.8851 3.26318 10.8176 3.17424 10.7323L0.303324 7.98355C0.209583 7.89939 0.134445 7.79806 0.0823657 7.68558C0.0302861 7.5731 0.00232456 7.45175 0.00013887 7.32872C-0.00204682 7.2057 0.0215878 7.08351 0.0696416 6.9694C0.117695 6.85529 0.18919 6.75157 0.279887 6.66441C0.370584 6.57724 0.478636 6.5084 0.597638 6.46196C0.71664 6.41552 0.844169 6.39243 0.972665 6.39406C1.10116 6.39569 1.22801 6.42201 1.34568 6.47145C1.46336 6.52089 1.56947 6.59245 1.65772 6.68188L2.89468 7.87355V0.916666C2.89468 0.673551 2.99554 0.440393 3.17509 0.268485C3.35464 0.096577 3.59816 0 3.85207 0C4.10599 0 4.34951 0.096577 4.52905 0.268485C4.7086 0.440393 4.80947 0.673551 4.80947 0.916666V7.87355L6.04642 6.68188C6.22671 6.50976 6.47102 6.41325 6.72562 6.41359C6.98021 6.41394 7.22424 6.5111 7.40401 6.68372C7.58379 6.85633 7.68458 7.09025 7.68422 7.33401C7.68386 7.57778 7.58238 7.81142 7.4021 7.98355L4.52991 10.7335C4.44086 10.8186 4.33512 10.8859 4.21879 10.9316C4.10246 10.9773 3.97783 11.0006 3.85207 11ZM22.0426 11H10.5538C10.2999 11 10.0564 10.9034 9.87687 10.7315C9.69732 10.5596 9.59645 10.3264 9.59645 10.0833C9.59645 9.84021 9.69732 9.60705 9.87687 9.43514C10.0564 9.26323 10.2999 9.16666 10.5538 9.16666H22.0426C22.2965 9.16666 22.54 9.26323 22.7196 9.43514C22.8991 9.60705 23 9.84021 23 10.0833C23 10.3264 22.8991 10.5596 22.7196 10.7315C22.54 10.9034 22.2965 11 22.0426 11ZM18.213 6.41666H10.5538C10.2999 6.41666 10.0564 6.32008 9.87687 6.14818C9.69732 5.97627 9.59645 5.74311 9.59645 5.49999C9.59645 5.25688 9.69732 5.02372 9.87687 4.85181C10.0564 4.67991 10.2999 4.58333 10.5538 4.58333H18.213C18.4669 4.58333 18.7105 4.67991 18.89 4.85181C19.0695 5.02372 19.1704 5.25688 19.1704 5.49999C19.1704 5.74311 19.0695 5.97627 18.89 6.14818C18.7105 6.32008 18.4669 6.41666 18.213 6.41666ZM18.213 1.83455H10.5538C10.2999 1.83455 10.0564 1.73798 9.87687 1.56607C9.69732 1.39416 9.59645 1.161 9.59645 0.917888C9.59645 0.674773 9.69732 0.441616 9.87687 0.269707C10.0564 0.0977992 10.2999 0.00122222 10.5538 0.00122222H18.213C18.4669 0.00122222 18.7105 0.0977992 18.89 0.269707C19.0695 0.441616 19.1704 0.674773 19.1704 0.917888C19.1704 1.161 19.0695 1.39416 18.89 1.56607C18.7105 1.73798 18.4669 1.83455 18.213 1.83455Z" fill="#0F4168"/>
</svg>
